<?xml version="1.0" standalone="no"?><!DOCTYPE svg PUBLIC "-//W3C//DTD SVG 1.1//EN" "http://www.w3.org/Graphics/SVG/1.1/DTD/svg11.dtd"><svg t="1509942875393" class="icon" style="" viewBox="0 0 1024 1024" version="1.1" xmlns="http://www.w3.org/2000/svg" p-id="4955" xmlns:xlink="http://www.w3.org/1999/xlink" width="200" height="200"><defs><style type="text/css"></style></defs><path d="M512.001023 956.324668c-234.044454 0-424.442852-190.409654-424.442852-424.439782 0-232.92291 188.583053-422.627507 421.083337-424.442852 3.217275-1.50119 9.129938-4.934382 13.626345-7.571443 16.405645-9.55768 38.897915-22.63144 63.541175-27.167756 15.838733-3.063779 30.91101 7.513114 33.818223 23.310915 2.907213 15.769149-7.52744 30.91101-23.296589 33.803897-14.705933 2.695389-31.410384 12.452613-44.839231 20.250206-15.412015 8.990768-26.543539 15.456017-39.49041 15.456017-202.0119 0-366.361015 164.349115-366.361015 366.361015 0 202.00883 164.349115 366.357945 366.361015 366.357945 202.00883 0 366.357945-164.349115 366.357945-366.357945 0-92.794429-34.756595-181.338045-97.885378-249.317299-3.89982-4.196579-14.95869-16.050558-51.943023-133.350101-89.179089 94.525863-114.546849 80.855516-127.492696 73.850985-14.108323-7.600095-19.370163-25.242917-11.755742-39.33589 5.884011-10.9197 17.84032-16.562211 29.438473-15.002692 16.675798-8.224312 61.839417-51.219545 100.493785-96.027054 6.934946-8.026814 17.712407-11.627828 28.036543-9.444093 10.365068 2.210341 18.701944 9.897418 21.765723 20.049638 20.476357 67.923996 47.53155 149.032268 55.558363 161.625074 71.594595 76.857459 111.865787 179.435719 111.865787 286.951431C936.440805 765.915014 746.045477 956.324668 512.001023 956.324668z" p-id="4956" fill="#2c2c2c"></path><path d="M522.946306 774.025739c-111.639636 0-192.651718-63.585177-206.405977-157.910473l-25.552979 0c-16.036231 0-29.04143-12.989849-29.04143-29.04143 0-16.053628 13.004175-29.04143 29.04143-29.04143l52.523237 0c16.039301 0 29.04143 12.986779 29.04143 29.04143 0 89.022523 75.538417 128.869043 150.394289 128.869043 74.858942 0 150.394289-39.847543 150.394289-128.869043 0-16.053628 13.004175-29.04143 29.04143-29.04143l51.333132 0c16.039301 0 29.04143 12.986779 29.04143 29.04143 0 16.050558-13.002129 29.04143-29.04143 29.04143L729.355353 616.115266C715.599048 710.440561 634.589013 774.025739 522.946306 774.025739z" p-id="4957" fill="#2c2c2c"></path><path d="M418.666288 434.383248c0 27.507494-22.291702 49.799196-49.799196 49.799196-27.510564 0-49.802266-22.291702-49.802266-49.799196 0-27.510564 22.291702-49.802266 49.802266-49.802266C396.374586 384.580982 418.666288 406.872684 418.666288 434.383248z" p-id="4958" fill="#2c2c2c"></path><path d="M721.865775 434.383248c0 27.507494-22.288632 49.799196-49.799196 49.799196-27.536146 0-49.773613-22.291702-49.773613-49.799196 0-27.510564 22.236444-49.802266 49.773613-49.802266C699.577143 384.580982 721.865775 406.872684 721.865775 434.383248z" p-id="4959" fill="#2c2c2c"></path></svg>