<?xml version="1.0" standalone="no"?><!DOCTYPE svg PUBLIC "-//W3C//DTD SVG 1.1//EN" "http://www.w3.org/Graphics/SVG/1.1/DTD/svg11.dtd"><svg t="1511859344176" class="icon" style="" viewBox="0 0 1024 1024" version="1.1" xmlns="http://www.w3.org/2000/svg" p-id="2988" xmlns:xlink="http://www.w3.org/1999/xlink" width="200" height="200"><defs><style type="text/css"></style></defs><path d="M448 544H96c-19.2 0-32 12.8-32 32v352c0 19.2 12.8 32 32 32h352c19.2 0 32-12.8 32-32V576c0-19.2-12.8-32-32-32z m0-480H96c-19.2 0-32 12.8-32 32v352c0 19.2 12.8 32 32 32h352c19.2 0 32-12.8 32-32V96c0-19.2-12.8-32-32-32z m480 0H576c-19.2 0-32 12.8-32 32v352c0 19.2 12.8 32 32 32h352c19.2 0 32-12.8 32-32V96c0-19.2-12.8-32-32-32z m0 480H576c-19.2 0-32 12.8-32 32v352c0 19.2 12.8 32 32 32h352c19.2 0 32-12.8 32-32V576c0-19.2-12.8-32-32-32z" fill="#515151" p-id="2989"></path></svg>